PathFileType	4	(X/Y/Z)	s08c0202.trc
DataRate	CameraRate	NumFrames	NumMarkers	Units	OrigDataRate	OrigDataStartFrame	OrigNumFrames
200	200	4	50	mm	200	250	2000
Frame#	Time	racr			lacr			c7			jug			rlel			rdr			llel			ldr			s2			lic			ric			lasi			rasi			rpsi			lpsi			rgt			lgt			rth1			rth2			rth3			rth4			rlfc			rmfc			rsh1			rsh2			rsh3			rsh4			rlmal			rmmal			rcal			rtoe			rmt5			lth1			lth2			lth4			lth3			llfc			lmfc			llmal			lmmal			lcal			lmt5			lsh1			lsh2			lsh3			lsh4			ltoe			SBIKE			LBIKE			RBIKE			
		X1	Y1	Z1	X2	Y2	Z2	X3	Y3	Z3	X4	Y4	Z4	X5	Y5	Z5	X6	Y6	Z6	X7	Y7	Z7	X8	Y8	Z8	X9	Y9	Z9	X10	Y10	Z10	X11	Y11	Z11	X12	Y12	Z12	X13	Y13	Z13	X14	Y14	Z14	X15	Y15	Z15	X16	Y16	Z16	X17	Y17	Z17	X18	Y18	Z18	X19	Y19	Z19	X20	Y20	Z20	X21	Y21	Z21	X22	Y22	Z22	X23	Y23	Z23	X24	Y24	Z24	X25	Y25	Z25	X26	Y26	Z26	X27	Y27	Z27	X28	Y28	Z28	X29	Y29	Z29	X30	Y30	Z30	X31	Y31	Z31	X32	Y32	Z32	X33	Y33	Z33	X34	Y34	Z34	X35	Y35	Z35	X36	Y36	Z36	X37	Y37	Z37	X38	Y38	Z38	X39	Y39	Z39	X40	Y40	Z40	X41	Y41	Z41	X42	Y42	Z42	X43	Y43	Z43	X44	Y44	Z44	X45	Y45	Z45	X46	Y46	Z46	X47	Y47	Z47	X48	Y48	Z48	X49	Y49	Z49	X50	Y50	Z50	
250	1.2500	530.262686	1391.765479	-56.641831	527.185391	1407.505754	-404.561547	520.959527	1453.999506	-234.026448	494.782501	1299.967855	-228.531788	566.172385	1135.952670	23.624085	778.125822	931.379011	-57.653940	601.311828	1158.865792	-486.165557	778.848528	926.627999	-429.429932	-18.412331	1202.345953	-238.269593	150.892531	1166.738888	-381.880618	141.223395	1198.470027	-74.768400	169.690759	1114.501937	-348.435965	159.646360	1141.463552	-106.340771	13.626224	1243.133316	-187.555125	17.998212	1238.864542	-283.728651	57.767196	1112.862268	-29.371021	69.771813	1059.266262	-415.874403	199.860432	1028.166456	-24.314745	288.078657	1017.139351	-25.190501	356.702099	963.051225	-28.448621	301.759969	1048.922265	-39.727384	458.608636	897.823643	-49.772393	444.041383	891.707714	-161.406551	372.889962	800.719234	-23.813764	341.984405	718.615268	-48.828550	276.016742	664.188170	-55.447318	366.491393	709.224602	-80.039856	203.032021	572.307795	-69.497218	222.083274	592.879724	-156.444004	118.049036	552.423130	-114.018603	414.898953	515.039636	-108.548753	322.202139	493.609728	-42.584207	114.663042	927.725574	-431.726745	164.808188	855.894207	-427.455503	197.591205	867.937899	-415.584355	171.081075	767.142078	-423.217014	206.361650	645.410837	-396.748612	201.194806	621.443316	-293.295034	120.480672	236.197203	-398.251974	148.894727	255.879551	-314.481205	56.317225	212.416868	-358.893991	259.559317	145.577465	-420.323849	174.565581	522.212014	-424.809902	179.808505	437.978863	-407.452535	144.463562	357.299501	-410.795603	200.547980	438.033148	-374.327582	342.725111	172.523581	-351.673609	-192.290457	920.147351	-238.992458	10.957547	80.223393	-426.805970	10.987276	79.930567	-28.503631	
251	1.2550	530.341049	1391.759858	-56.628734	527.339152	1407.423336	-404.494928	521.023602	1453.803229	-233.956209	494.873613	1299.818815	-228.448294	566.193134	1135.885627	23.648700	778.099771	931.373189	-57.670475	601.114106	1158.696086	-486.251393	778.847015	926.660471	-429.457329	-18.400493	1202.351602	-238.279573	150.884813	1166.739692	-381.858696	141.181495	1198.460229	-74.827175	169.675283	1114.529123	-348.371072	159.650176	1141.520689	-106.381253	13.619471	1243.220289	-187.493387	17.980129	1238.872724	-283.769704	57.752279	1112.892220	-29.366039	69.784323	1059.271979	-415.862922	199.890550	1028.243309	-24.361892	288.138366	1017.171047	-25.181494	356.695107	963.078503	-28.462912	301.787116	1048.962260	-39.746130	458.623463	897.849256	-49.788623	444.025960	891.728288	-161.440359	372.924015	800.745839	-23.807515	342.871150	718.874209	-47.164594	276.111593	664.153088	-55.452720	366.599690	709.219206	-80.021913	203.164694	572.231866	-69.483642	222.208974	592.824631	-156.413992	118.202078	552.289352	-114.017333	415.066400	515.050473	-108.544903	322.350547	493.579832	-42.569166	114.694297	927.743378	-431.708069	164.850174	855.922866	-427.417209	197.624349	867.964920	-415.579437	171.149664	767.176175	-423.219465	206.424431	645.422874	-396.760900	201.271347	621.454513	-293.291959	120.344741	236.265726	-398.245496	148.802309	255.899484	-314.494473	56.157101	212.492872	-358.897472	259.410774	145.600095	-420.313416	174.588457	522.263806	-424.806001	179.779175	437.992186	-407.426530	144.392384	357.361780	-410.803300	200.524516	438.135404	-374.373343	342.576062	172.534745	-351.655343	-192.189220	920.153050	-238.893389	10.965271	80.200392	-426.811854	10.982716	79.911456	-28.512150	
252	1.2600	530.447321	1391.767512	-56.674196	528.138513	1407.912652	-406.224675	521.061762	1453.634247	-233.877684	495.083249	1299.705211	-228.319303	566.224129	1135.846991	23.683020	778.111833	931.360661	-57.713549	600.892734	1158.504759	-486.366443	778.844561	926.727076	-429.496915	-18.436376	1202.375976	-238.270399	150.887985	1166.751566	-381.896309	141.165689	1198.457673	-74.936561	169.626983	1114.573961	-348.325386	159.672032	1141.621534	-106.475962	13.599346	1243.233536	-187.472411	17.954795	1238.872795	-283.775426	57.785005	1112.906690	-29.358601	69.780014	1059.272225	-415.890258	199.930328	1028.317253	-24.434239	288.172690	1017.244683	-25.240297	356.725027	963.112925	-28.511427	301.850001	1049.023569	-39.770366	458.664657	897.919921	-49.831548	444.001539	891.712190	-161.431745	372.981037	800.748313	-23.838355	342.937645	718.853480	-47.203331	276.240425	664.120864	-55.452321	366.695881	709.223185	-79.993013	203.327974	572.173610	-69.466146	222.370218	592.739068	-156.399259	118.407944	552.184354	-114.053742	415.264786	515.054059	-108.532817	322.566538	493.535078	-42.563955	114.726442	927.752991	-431.690862	164.922657	855.947125	-427.400290	197.678878	867.999161	-415.558689	171.256034	767.201033	-423.210746	206.536610	645.504137	-396.744327	201.362951	621.473439	-293.277647	120.169765	236.361135	-398.213236	148.649208	255.946162	-314.478740	55.997285	212.566835	-358.871149	259.201197	145.649292	-420.304498	174.614349	522.300629	-424.797044	179.758007	438.024913	-407.425197	144.298460	357.444449	-410.793350	200.496229	438.140436	-374.356500	342.355750	172.538980	-351.662962	-192.065128	920.134478	-239.060671	10.964688	80.202065	-426.815918	11.018625	79.897757	-28.521293	
253	1.2650	530.616439	1391.788396	-56.714339	528.408531	1407.853573	-406.058964	521.088654	1453.439861	-233.773096	495.184570	1299.447507	-228.307061	566.289669	1135.807347	23.741441	778.107776	931.354293	-57.791618	600.596454	1158.279368	-486.537414	778.843315	926.804351	-429.579076	-18.457823	1202.364689	-238.304277	150.855759	1166.745017	-381.877738	141.041511	1198.492363	-75.071893	169.580324	1114.638560	-348.308993	159.667351	1141.820982	-106.574101	13.599940	1243.214012	-187.623172	17.922069	1238.878435	-283.813941	57.805565	1112.934675	-29.368825	69.762464	1059.269487	-415.923746	199.944576	1028.473171	-24.568151	288.205990	1017.350002	-25.298567	356.724956	963.189358	-28.537020	301.882310	1049.138591	-39.752968	458.673702	897.981044	-49.883661	444.002403	891.692817	-161.448407	373.027457	800.795898	-23.854599	342.254289	718.605632	-48.841444	276.354404	664.101906	-55.456614	366.812244	709.220299	-79.939858	203.514719	572.080699	-69.474795	222.606448	592.652330	-156.358635	118.604730	552.070513	-114.068754	415.485860	515.074448	-108.532450	322.830078	493.475661	-42.556995	114.774179	927.782602	-431.662292	164.961544	856.002199	-427.391052	197.755966	868.048081	-415.555286	171.358342	767.249620	-423.231102	206.644897	645.534818	-396.753366	201.444913	621.497369	-293.277100	119.961285	236.458967	-398.186546	148.418587	256.043201	-314.448510	55.749470	212.695960	-358.846548	258.983838	145.683140	-420.295399	174.637882	522.353353	-424.791331	179.724106	438.062415	-407.387665	144.181555	357.516140	-410.785799	200.457263	438.329483	-374.519449	342.115650	172.544447	-351.653823	-192.276256	920.155253	-238.968541	10.968763	80.262036	-426.848174	10.997811	79.906782	-28.505902	
